<?xml version="1.0" standalone="no"?>
<!DOCTYPE svg PUBLIC "-//W3C//DTD SVG 20010904//EN"
 "http://www.w3.org/TR/2001/REC-SVG-20010904/DTD/svg10.dtd">
<svg version="1.0" xmlns="http://www.w3.org/2000/svg"
 width="980.000000pt" height="966.000000pt" viewBox="0 0 980.000000 966.000000"
 preserveAspectRatio="xMidYMid meet">
<metadata>
Created by potrace 1.16, written by Peter Selinger 2001-2019
</metadata>
<g transform="translate(0.000000,966.000000) scale(0.100000,-0.100000)"
fill="#000000" stroke="none">
<path d="M4780 9653 c-382 -17 -713 -98 -1015 -250 -240 -120 -405 -241 -610
-447 -205 -205 -356 -412 -479 -654 -37 -71 -52 -92 -64 -88 -63 19 -155 38
-267 58 -113 20 -165 22 -400 22 -215 0 -289 -3 -365 -17 -384 -71 -676 -219
-928 -469 -219 -217 -379 -488 -496 -838 -62 -188 -95 -330 -132 -563 -24
-149 -26 -179 -20 -367 9 -314 44 -531 126 -780 149 -454 417 -806 805 -1060
182 -119 466 -238 690 -290 55 -13 104 -27 108 -31 5 -4 12 -270 15 -591 l7
-585 29 -37 c16 -21 47 -47 70 -57 40 -18 133 -19 3039 -19 2675 0 3002 2
3034 15 50 21 72 42 94 90 17 37 19 79 19 627 l0 586 33 7 c79 16 291 81 390
121 519 209 910 569 1129 1042 87 186 157 447 190 697 7 60 12 202 12 355 -1
421 -34 611 -160 921 -116 287 -263 522 -448 717 -357 375 -835 560 -1391 538
-186 -7 -320 -25 -498 -67 -71 -17 -130 -30 -131 -28 -2 2 -29 51 -61 109
-220 397 -498 704 -851 939 -280 187 -584 306 -920 361 -117 20 -381 41 -454
38 -19 -1 -64 -3 -100 -5z m340 -344 c758 -69 1380 -517 1741 -1255 43 -88 89
-170 101 -181 54 -51 110 -54 228 -14 208 70 385 102 617 108 207 6 322 -5
488 -47 512 -129 885 -532 1098 -1185 38 -115 57 -277 64 -536 6 -250 -3 -381
-42 -577 -155 -765 -714 -1264 -1578 -1407 -50 -8 -113 -65 -127 -113 -6 -23
-10 -252 -10 -604 l0 -568 -2810 0 -2810 0 0 568 c0 633 3 606 -70 663 -28 23
-55 31 -140 44 -450 70 -859 288 -1114 593 -276 332 -416 766 -416 1291 0 431
146 934 367 1269 122 183 328 366 518 457 217 106 412 147 700 148 247 2 474
-30 690 -98 160 -50 225 -23 281 115 160 395 466 772 814 1004 384 256 889
373 1410 325z"/>
<path d="M1834 2401 c-47 -22 -80 -59 -95 -110 -7 -25 -9 -270 -7 -771 5 -803
2 -773 65 -929 47 -118 103 -201 208 -307 104 -105 213 -185 319 -235 l62 -29
1870 -10 c2083 -10 3085 -2 3214 25 257 56 426 232 508 534 l27 96 3 809 c3
805 3 808 -18 852 -13 26 -36 53 -58 66 l-37 23 -3010 2 c-2913 3 -3011 2
-3051 -16z m5843 -993 c-3 -587 -6 -682 -20 -743 -24 -100 -70 -187 -123 -234
-76 -66 -103 -72 -419 -81 -332 -10 -2197 -11 -3636 -2 l-1025 7 -70 45 c-133
86 -235 209 -287 346 -22 59 -22 64 -25 697 l-3 637 2806 0 2806 0 -4 -672z"/>
</g>
</svg>
